PathFileType	4	(X/Y/Z)	Patient4_TMGait_0pt2_01_right_06.trc.trc
DataRate	CameraRate	NumFrames	NumMarkers	Units	OrigDataRate	OrigDataStartFrame	OrigNumFrames
40.816326530612	40.816326530612	5	33	mm	40.816326530612	36	       141
Frame#	Time	Sacral			L.Shoulder			Chest			R.Shoulder			Neck			R.ASIS			L.ASIS			R.Thigh.Superior			R.Thigh.Lateral			R.Thigh.Inferior			R.Patella			L.Thigh.Superior			L.Thigh.Lateral			L.Thigh.Inferior			L.Patella			L.Shank.Superior			L.Shank.Lateral			L.Shank.Inferior			R.Shank.Superior			R.Shank.Lateral			R.Shank.Inferior			R.Heel			R.Midfoot.Superior			R.Midfoot.Lateral			R.Toe			L.Heel			L.Midfoot.Lateral			L.Midfoot.Superior			L.Toe			L.Elbow			L.Wrist			R.Elbow			R.Wrist			
		X1	Y1	Z1	X2	Y2	Z2	X3	Y3	Z3	X4	Y4	Z4	X5	Y5	Z5	X6	Y6	Z6	X7	Y7	Z7	X8	Y8	Z8	X9	Y9	Z9	X10	Y10	Z10	X11	Y11	Z11	X12	Y12	Z12	X13	Y13	Z13	X14	Y14	Z14	X15	Y15	Z15	X16	Y16	Z16	X17	Y17	Z17	X18	Y18	Z18	X19	Y19	Z19	X20	Y20	Z20	X21	Y21	Z21	X22	Y22	Z22	X23	Y23	Z23	X24	Y24	Z24	X25	Y25	Z25	X26	Y26	Z26	X27	Y27	Z27	X28	Y28	Z28	X29	Y29	Z29	X30	Y30	Z30	X31	Y31	Z31	X32	Y32	Z32	X33	Y33	Z33	

36	12.307500000000	820.778100639393	996.501450230548	477.009730515576	1016.379026490110	1435.466714888730	343.525613338302	1075.785894968725	1371.789516874018	525.653778255646	943.750390864352	1437.503682587644	670.250937483926	954.992648652761	1493.078090513999	492.925156213006	1023.396209910055	944.967676650713	644.447004926899	1066.255869232222	961.845248162538	373.709986515865	1086.836951196106	748.816515802275	615.162852109205	1010.296083974213	631.226737332231	664.550589489677	1100.205567435921	586.604944288981	593.225858959496	1108.431773199040	497.184158614286	599.660898132790	1067.571437560175	727.583335814760	398.973925088312	965.006148170665	627.909615895495	317.423243556473	1016.135901142701	536.610213994473	390.129329816859	1000.210556631552	465.896222178611	394.397918870207	959.001022749607	402.912068087007	377.569781017559	852.938557370771	311.882751261792	311.457940516368	872.840032918368	189.043356083042	379.379395216528	1079.788677996082	406.422689657057	603.447827673966	1005.138916573710	302.779738724225	662.281005071978	1050.493548650132	207.684936925270	602.451346874027	916.382635823339	43.456368674290	569.877933275292	1086.816797520256	97.947558101772	611.363279651472	997.693249330857	37.669357665669	647.270795890758	1205.546097506539	46.443855256471	643.586425468653	718.580097400080	47.302287853493	400.004631384957	798.354886280549	41.493853202683	325.933633011346	882.590991985400	98.054348842077	359.770791106771	1009.306108255197	40.332615442266	338.297360743427	1184.495967298988	1162.579580932776	184.879730034181	1442.600110673330	1153.614838340404	226.070981541889	816.958132748527	1112.166769358782	766.358676154597	878.126211320262	858.576905197506	789.736458697558	
37	12.332000000000	821.290219590831	997.280311081866	483.805512651429	1016.789793678373	1435.331536167881	346.954152916124	1077.932274039201	1371.919224346869	528.606857143030	947.643309071608	1438.344542742941	674.438364275081	957.265031758613	1493.605383995972	496.702099427583	1025.211566272447	945.495420663665	649.304013077675	1065.502222945175	961.628907189713	378.159751933419	1086.554839244242	748.408887049736	619.209637098763	1008.991634694046	631.218732538170	668.270414322228	1098.045519126048	586.149572517414	596.350832676704	1105.291719452326	496.685140463659	602.081438434853	1068.557318012365	727.961806222576	403.009991819909	966.503421111187	627.765497495367	322.051246677031	1019.567276201104	536.312735509975	393.826794660308	1004.224633982493	464.516040455959	397.386194792332	960.833371884553	402.364371672391	380.410041551569	852.482516273766	314.075758160612	314.179605591669	870.873088748679	190.034657665903	380.354906907590	1076.412049951706	406.113392852003	605.445947739783	1001.617027733083	302.386060349171	663.806342252056	1046.378477476850	207.477372629804	603.251919880109	911.739994200044	43.538755531077	569.962584277687	1082.264341238389	97.887918656708	611.597814835201	993.065779675454	37.668558545100	647.373853703889	1200.981140475064	45.984544105570	643.740598920270	714.199153982447	50.652695843821	400.265153950319	793.930375629231	43.487587330218	326.178202674781	879.127307241411	98.777178889703	359.887532058044	1004.846601942665	39.558658354176	338.197005308402	1178.784258349811	1157.111028505764	189.027717855563	1436.872112970565	1140.076560874284	229.625154222022	822.835790345680	1113.318426105245	774.983891381004	890.332890809611	861.417914575364	798.661333027895	
38	12.356500000000	821.655410986363	998.024411099148	490.459542352008	1016.608574996506	1435.256604722611	350.118780533744	1079.678477920510	1372.152945957848	531.232278347093	951.235092408466	1439.179900438511	678.405478628226	959.088556300014	1494.153490432690	500.270260702239	1026.955628676089	946.039293862805	653.913623285248	1064.587195675529	961.517345193091	382.376896604761	1086.099868254112	747.964848613407	623.089474492583	1007.406047618792	631.209416833738	671.826614765819	1095.583418947105	585.671011795558	599.353632082212	1101.756037043406	496.225193599128	604.394312335753	1069.941804072668	728.546741616445	407.024064778220	968.814901757269	627.529540301582	326.664044619606	1024.053462993260	536.088797689845	397.552701669202	1009.378212338036	463.109786972908	400.309787078930	963.657931226103	401.795281525649	383.240607469170	852.935781785639	316.500722288415	316.950779776723	869.506012683904	191.290314504959	381.308492005410	1072.733843952349	405.845411654241	607.371038084636	997.835905284544	302.020261674652	665.252641812375	1042.107400434893	207.314399916657	604.016758132398	907.012738424058	43.628651876855	570.029195033475	1077.646993566926	97.844886722179	611.813756205118	988.356223992387	37.682952791508	647.448882431083	1196.318420985818	45.541535420264	643.847629492762	710.061203208042	54.791390790659	400.542677723766	789.682785316689	45.921658771759	326.422963644822	876.051090788441	99.632607435004	359.952599975743	1000.460694753864	38.850481405202	338.088793679067	1171.307396578172	1151.005402415996	193.205091899819	1429.006742679074	1124.391120872243	233.071690032299	829.480791693739	1114.115041868051	783.532861388592	903.928870825771	864.242398813866	807.452144744141	
39	12.381000000000	821.897614021293	998.698714457343	496.954264986568	1015.835901537227	1435.220733002241	353.032353022629	1080.991577686404	1372.481726259282	533.551158915278	954.452668889211	1439.986508462942	682.139168765679	960.416572593106	1494.693419618440	503.629754397910	1028.647229145450	946.595769119604	658.282704642365	1063.552772028581	961.494136634963	386.372639670457	1085.537434193915	747.500249879644	626.771913794529	1005.652798594764	631.194871634619	675.214278922898	1092.918658145630	585.173075626654	602.205674609171	1097.948777799142	495.789094867529	606.579885758189	1071.749783403303	729.324803315973	411.039574619658	972.008651461852	627.212792210100	331.227744532632	1029.621671526999	535.965795132445	401.295946071135	1015.693449435037	461.730393518517	403.143914374342	967.556597859570	401.231835775304	386.026990829723	854.410448431770	319.177384692996	319.740137091575	868.841022293372	192.848573518502	382.211411789623	1068.848947888707	405.600831333775	609.203948836761	993.871757238204	301.676232212054	666.606758944732	1037.720538991500	207.177986500534	604.727254904412	902.203523946235	43.716377603947	570.079946819485	1072.960182963991	97.822349792986	612.011143083599	983.562933614529	37.706215793253	647.497037015676	1191.562197588231	45.132240832935	643.912470420874	706.296096708438	59.833159326491	400.829138799140	785.692560207040	48.870100314874	326.662111464145	873.446318510366	100.621387798247	359.944778245882	996.143611089666	38.234262657243	337.977976603518	1162.026198323332	1144.335412240497	197.481793626547	1418.742396833123	1106.544200710464	236.456716660011	836.948245754286	1114.495549163999	791.940351680699	919.045373330429	867.087185353582	816.093521739142	
40	12.405500000000	822.026981019060	999.264307385279	503.291400568971	1014.490635368286	1435.182320104213	355.708986354833	1081.860468099992	1372.878634731350	535.585929850147	957.257411868881	1440.745993486259	685.628825614207	961.230756551573	1495.189282074565	506.778310446857	1030.292424546475	947.149563991490	662.427905881043	1062.418071643348	961.530176655985	390.165693764198	1084.932493685831	747.028439501320	630.235684261104	1003.859155523741	631.164030652897	678.438875055699	1090.169332551259	584.658996760805	604.886901607764	1094.024967043346	495.356318689202	608.627821620527	1073.981271305480	730.288707771255	415.065554010136	976.118331319376	626.844849464085	335.693523896722	1036.269290628963	535.988645664672	405.024342633941	1023.174667805680	460.449876971769	405.847291156578	972.596945195913	400.715632251426	388.716224150819	857.003754298157	322.133720499462	322.500219276711	868.986649291943	194.755559793968	383.024555942917	1064.874250953154	405.357453592378	610.932192472107	989.820710876689	301.345438020432	667.866151146376	1033.272540756642	207.050172746457	605.370577782628	897.326526481110	43.795596928742	570.119033762028	1068.210769742015	97.819601506041	612.188281787666	978.697225527236	37.732584147721	647.521808898445	1186.728640496779	44.768177323461	643.943464079079	703.070902262417	65.909876841284	401.111730038108	782.061119858561	52.426680595022	326.885568826236	871.400654321063	101.748068593276	359.840078224979	991.882935038741	37.720154420279	337.869399705764	1150.973257788388	1137.195278812501	201.929547044200	1405.836118703812	1086.584580136702	239.839517565596	845.273746530916	1114.438809967750	800.137328741021	935.778602424723	870.044425982572	824.543145605008	
